<?xml version="1.0" standalone="no"?>
<!DOCTYPE svg PUBLIC "-//W3C//DTD SVG 20010904//EN"
 "http://www.w3.org/TR/2001/REC-SVG-20010904/DTD/svg10.dtd">
<svg version="1.0" xmlns="http://www.w3.org/2000/svg"
 width="1408.000000pt" height="1408.000000pt" viewBox="0 0 1408.000000 1408.000000"
 preserveAspectRatio="xMidYMid meet">
<metadata>
Created by potrace 1.14, written by Peter Selinger 2001-2017
</metadata>
<g transform="translate(0.000000,1408.000000) scale(0.100000,-0.100000)"
fill="#000000" stroke="none">
<path d="M4628 14051 c-172 -44 -297 -203 -302 -386 -4 -110 11 -146 181 -450
49 -88 93 -167 97 -175 4 -8 12 -24 19 -35 12 -20 107 -189 166 -297 l31 -57
-123 -82 c-435 -291 -786 -643 -1075 -1076 -264 -395 -459 -882 -537 -1338 -3
-16 -7 -39 -9 -50 -2 -11 -7 -42 -10 -70 -27 -207 -33 -302 -35 -549 l-1 -169
-62 60 c-128 121 -269 207 -435 263 -91 30 -115 35 -233 49 -336 40 -683 -87
-928 -339 -54 -55 -192 -244 -192 -263 0 -3 -13 -34 -29 -69 -38 -84 -57 -146
-77 -259 -15 -85 -17 -259 -17 -1904 0 -995 2 -1839 6 -1875 14 -140 68 -305
142 -434 114 -201 271 -348 480 -451 206 -102 405 -136 634 -111 36 4 67 9 70
10 3 2 22 7 42 10 61 9 207 63 277 101 94 52 183 117 258 189 l64 62 1 -266
c0 -267 2 -304 13 -372 3 -21 9 -55 12 -75 3 -21 8 -41 10 -44 2 -3 6 -20 9
-38 8 -45 61 -175 102 -251 160 -295 446 -515 767 -590 122 -29 163 -32 381
-34 l200 -2 1 -824 c1 -454 4 -841 7 -860 4 -19 9 -48 12 -65 25 -134 88 -290
171 -417 56 -87 214 -246 301 -306 272 -182 599 -238 918 -157 439 111 773
489 834 940 5 39 9 432 10 874 0 442 3 807 7 810 3 3 120 6 260 6 l254 0 0
-250 c1 -137 1 -504 1 -815 1 -618 5 -670 58 -829 60 -178 149 -320 284 -452
140 -138 334 -249 502 -286 127 -28 169 -33 265 -34 272 -3 496 73 720 243
192 146 355 417 405 673 15 78 17 173 19 934 l1 815 201 2 c214 1 278 7 389
35 309 77 594 294 749 572 58 103 121 270 131 347 1 8 5 40 10 70 13 86 13 98
14 380 l1 265 71 -68 c496 -471 1284 -397 1691 159 82 113 167 302 184 410 3
22 8 42 9 45 15 24 18 374 18 1959 1 1697 0 1811 -17 1905 -52 287 -208 537
-446 716 -108 81 -295 165 -424 190 -94 18 -118 21 -205 23 -306 10 -594 -102
-818 -317 l-63 -60 -1 154 c-1 266 -19 498 -53 674 -5 29 -17 96 -22 125 -3
14 -20 84 -39 156 -66 255 -136 438 -261 689 -253 510 -612 942 -1084 1306
-95 73 -276 199 -287 199 -3 0 -15 7 -25 16 -17 16 -17 19 11 68 16 28 43 78
61 111 18 33 52 94 75 135 24 41 56 100 72 130 53 97 85 155 93 165 8 12 95
172 124 229 47 92 53 215 17 319 -98 282 -464 365 -674 153 -49 -50 -91 -121
-392 -667 -11 -20 -49 -88 -84 -152 l-64 -115 -115 39 c-98 33 -269 83 -322
94 -8 2 -53 12 -100 23 -47 11 -102 23 -124 26 -21 4 -41 8 -45 10 -3 2 -31 7
-61 10 -54 6 -89 12 -140 21 -14 3 -59 7 -100 11 -41 3 -106 10 -145 14 -71 9
-663 6 -700 -3 -11 -2 -54 -8 -95 -12 -41 -3 -86 -8 -100 -10 -14 -3 -56 -9
-95 -14 -38 -6 -115 -20 -170 -31 -55 -12 -112 -24 -126 -26 -53 -10 -278 -73
-395 -111 l-122 -40 -22 41 c-29 52 -60 109 -92 166 -14 25 -40 72 -58 105
-18 33 -42 76 -53 95 -11 19 -30 53 -42 75 -12 22 -37 67 -55 100 -18 33 -59
106 -91 162 -33 57 -59 107 -59 112 0 5 -26 36 -58 68 -111 113 -252 153 -404
114z"/>
</g>
</svg>
